<svg width="1858" height="1038" viewBox="0 0 1858 1038" fill="none" xmlns="http://www.w3.org/2000/svg">
<path fill-rule="evenodd" clip-rule="evenodd" d="M30 0C13.4315 0 0 13.4314 0 30V598C0 614.569 13.4315 628 30.0001 628H423C441.225 628 456 642.775 456 661V694C456 710.569 469.431 724 486 724H720C738.225 724 753 738.775 753 757V838C753 854.569 766.431 868 783 868H915C933.225 868 948 882.775 948 901V1008C948 1024.57 961.431 1038 978 1038H1828C1844.57 1038 1858 1024.57 1858 1008V838V694V598V440V270V126V30C1858 13.4315 1844.57 0 1828 0H30Z" fill="black"/>
</svg>
